<mxfile host="app.diagrams.net" modified="2024-01-29T06:19:02.372Z" agent="Mozilla/5.0 (Windows NT 10.0; Win64; x64) AppleWebKit/537.36 (KHTML, like Gecko) Chrome/121.0.0.0 Safari/537.36" version="23.0.1" etag="DBhOdG6frmvlYwfLsd7Y" type="github">
  <diagram name="Page-1" id="jZe_JqN8-TlA7-YUlp_m">
    <mxGraphModel>
      <root>
        <mxCell id="0" />
        <mxCell id="1" parent="0" />
      </root>
    </mxGraphModel>
  </diagram>
</mxfile>
